<?xml version="1.0" encoding="UTF-8"?>
<svg xmlns="http://www.w3.org/2000/svg" xmlns:xlink="http://www.w3.org/1999/xlink" width="18px" height="18px" viewBox="0 0 18 18" version="1.1">
<g id="surface1">
<path style=" stroke:none;fill-rule:evenodd;fill:rgb(87.45098%,33.333333%,19.607843%);fill-opacity:1;" d="M 0 9.816406 C 2.304688 10.871094 4.734375 11.488281 7.199219 11.648438 L 7.199219 13.765625 L 10.800781 13.765625 L 10.800781 11.648438 C 13.261719 11.464844 15.6875 10.863281 18 9.859375 L 18 18 L 0 18 Z M 11.699219 0 L 12.601562 1.058594 L 12.601562 3.175781 L 18 3.175781 L 18 8.691406 C 15.242188 9.90625 12.324219 10.546875 9.378906 10.589844 L 8.730469 10.589844 C 5.746094 10.550781 2.789062 9.890625 0 8.640625 L 0 3.175781 L 5.398438 3.175781 L 5.398438 1.058594 L 6.300781 0 Z M 10.800781 2.117188 L 7.199219 2.117188 L 7.199219 3.175781 L 10.800781 3.175781 Z M 10.800781 2.117188 "/>
</g>
</svg>
